<?xml version="1.0" encoding="UTF-8"?>
<!DOCTYPE svg PUBLIC "-//W3C//DTD SVG 1.1//EN" "http://www.w3.org/Graphics/SVG/1.1/DTD/svg11.dtd">
<svg width="160mm" height="212mm" viewBox="0 0 16000 21200" version="1.1" xmlns="http://www.w3.org/2000/svg" xmlns:xlink="http://www.w3.org/1999/xlink" stroke-width="28.222" stroke-linejoin="round" xml:space="preserve">
 <path fill="rgb(255,255,255)" stroke="none" d="M 7998,21233 L 0,21233 0,0 15996,0 15996,21233 7998,21233 Z"/>
 <path fill="none" stroke="rgb(179,179,179)" stroke-linejoin="round" d="M 5493,18290 L 1899,18290 1899,2817 9086,2817 9086,18290 5493,18290 Z"/>
 <path fill="none" stroke="rgb(179,179,179)" stroke-linejoin="round" d="M 9086,18289 L 1899,18289"/>
 <path fill="none" stroke="rgb(179,179,179)" stroke-linejoin="round" d="M 9086,16741 L 1899,16741"/>
 <path fill="none" stroke="rgb(179,179,179)" stroke-linejoin="round" d="M 9086,15194 L 1899,15194"/>
 <path fill="none" stroke="rgb(179,179,179)" stroke-linejoin="round" d="M 9086,13646 L 1899,13646"/>
 <path fill="none" stroke="rgb(179,179,179)" stroke-linejoin="round" d="M 9086,12099 L 1899,12099"/>
 <path fill="none" stroke="rgb(179,179,179)" stroke-linejoin="round" d="M 9086,10553 L 1899,10553"/>
 <path fill="none" stroke="rgb(179,179,179)" stroke-linejoin="round" d="M 9086,9005 L 1899,9005"/>
 <path fill="none" stroke="rgb(179,179,179)" stroke-linejoin="round" d="M 9086,7458 L 1899,7458"/>
 <path fill="none" stroke="rgb(179,179,179)" stroke-linejoin="round" d="M 9086,5910 L 1899,5910"/>
 <path fill="none" stroke="rgb(179,179,179)" stroke-linejoin="round" d="M 9086,4363 L 1899,4363"/>
 <path fill="none" stroke="rgb(179,179,179)" stroke-linejoin="round" d="M 9086,2816 L 1899,2816"/>
 <path fill="none" stroke="rgb(179,179,179)" stroke-linejoin="round" d="M 1899,18439 L 1899,18289"/>
 <path fill="none" stroke="rgb(179,179,179)" stroke-linejoin="round" d="M 1899,18439 L 1899,18289"/>
 <path fill="none" stroke="rgb(179,179,179)" stroke-linejoin="round" d="M 2925,18439 L 2925,18289"/>
 <path fill="none" stroke="rgb(179,179,179)" stroke-linejoin="round" d="M 2925,18439 L 2925,18289"/>
 <path fill="none" stroke="rgb(179,179,179)" stroke-linejoin="round" d="M 3952,18439 L 3952,18289"/>
 <path fill="none" stroke="rgb(179,179,179)" stroke-linejoin="round" d="M 3952,18439 L 3952,18289"/>
 <path fill="none" stroke="rgb(179,179,179)" stroke-linejoin="round" d="M 4979,18439 L 4979,18289"/>
 <path fill="none" stroke="rgb(179,179,179)" stroke-linejoin="round" d="M 4979,18439 L 4979,18289"/>
 <path fill="none" stroke="rgb(179,179,179)" stroke-linejoin="round" d="M 6006,18439 L 6006,18289"/>
 <path fill="none" stroke="rgb(179,179,179)" stroke-linejoin="round" d="M 6006,18439 L 6006,18289"/>
 <path fill="none" stroke="rgb(179,179,179)" stroke-linejoin="round" d="M 7033,18439 L 7033,18289"/>
 <path fill="none" stroke="rgb(179,179,179)" stroke-linejoin="round" d="M 7033,18439 L 7033,18289"/>
 <path fill="none" stroke="rgb(179,179,179)" stroke-linejoin="round" d="M 8059,18439 L 8059,18289"/>
 <path fill="none" stroke="rgb(179,179,179)" stroke-linejoin="round" d="M 8059,18439 L 8059,18289"/>
 <path fill="none" stroke="rgb(179,179,179)" stroke-linejoin="round" d="M 9086,18439 L 9086,18289"/>
 <path fill="none" stroke="rgb(179,179,179)" stroke-linejoin="round" d="M 9086,18439 L 9086,18289"/>
 <path fill="none" stroke="rgb(179,179,179)" stroke-linejoin="round" d="M 1899,18289 L 9086,18289"/>
 <path fill="none" stroke="rgb(179,179,179)" stroke-linejoin="round" d="M 1749,18289 L 1899,18289"/>
 <path fill="none" stroke="rgb(179,179,179)" stroke-linejoin="round" d="M 1749,18289 L 1899,18289"/>
 <path fill="none" stroke="rgb(179,179,179)" stroke-linejoin="round" d="M 1749,16741 L 1899,16741"/>
 <path fill="none" stroke="rgb(179,179,179)" stroke-linejoin="round" d="M 1749,16741 L 1899,16741"/>
 <path fill="none" stroke="rgb(179,179,179)" stroke-linejoin="round" d="M 1749,15194 L 1899,15194"/>
 <path fill="none" stroke="rgb(179,179,179)" stroke-linejoin="round" d="M 1749,15194 L 1899,15194"/>
 <path fill="none" stroke="rgb(179,179,179)" stroke-linejoin="round" d="M 1749,13646 L 1899,13646"/>
 <path fill="none" stroke="rgb(179,179,179)" stroke-linejoin="round" d="M 1749,13646 L 1899,13646"/>
 <path fill="none" stroke="rgb(179,179,179)" stroke-linejoin="round" d="M 1749,12099 L 1899,12099"/>
 <path fill="none" stroke="rgb(179,179,179)" stroke-linejoin="round" d="M 1749,12099 L 1899,12099"/>
 <path fill="none" stroke="rgb(179,179,179)" stroke-linejoin="round" d="M 1749,10553 L 1899,10553"/>
 <path fill="none" stroke="rgb(179,179,179)" stroke-linejoin="round" d="M 1749,10553 L 1899,10553"/>
 <path fill="none" stroke="rgb(179,179,179)" stroke-linejoin="round" d="M 1749,9005 L 1899,9005"/>
 <path fill="none" stroke="rgb(179,179,179)" stroke-linejoin="round" d="M 1749,9005 L 1899,9005"/>
 <path fill="none" stroke="rgb(179,179,179)" stroke-linejoin="round" d="M 1749,7458 L 1899,7458"/>
 <path fill="none" stroke="rgb(179,179,179)" stroke-linejoin="round" d="M 1749,7458 L 1899,7458"/>
 <path fill="none" stroke="rgb(179,179,179)" stroke-linejoin="round" d="M 1749,5910 L 1899,5910"/>
 <path fill="none" stroke="rgb(179,179,179)" stroke-linejoin="round" d="M 1749,5910 L 1899,5910"/>
 <path fill="none" stroke="rgb(179,179,179)" stroke-linejoin="round" d="M 1749,4363 L 1899,4363"/>
 <path fill="none" stroke="rgb(179,179,179)" stroke-linejoin="round" d="M 1749,4363 L 1899,4363"/>
 <path fill="none" stroke="rgb(179,179,179)" stroke-linejoin="round" d="M 1749,2816 L 1899,2816"/>
 <path fill="none" stroke="rgb(179,179,179)" stroke-linejoin="round" d="M 1749,2816 L 1899,2816"/>
 <path fill="none" stroke="rgb(179,179,179)" stroke-linejoin="round" d="M 1899,18289 L 1899,2816"/>
 <path fill="none" stroke="rgb(0,69,134)" stroke-width="80" stroke-linejoin="round" d="M 1899,17283 L 2925,18211 3952,18289 4979,18134 6006,17979 7033,18289 8059,17437 9086,17979"/>
 <path fill="rgb(0,69,134)" stroke="none" d="M 1774,17158 L 1774,17408 2024,17408 2024,17158 1774,17158 Z"/>
 <path fill="none" stroke="rgb(0,69,134)" stroke-linejoin="round" d="M 1774,17158 L 1774,17408 2024,17408 2024,17158 1774,17158 Z"/>
 <path fill="rgb(0,69,134)" stroke="none" d="M 2800,18086 L 2800,18336 3050,18336 3050,18086 2800,18086 Z"/>
 <path fill="none" stroke="rgb(0,69,134)" stroke-linejoin="round" d="M 2800,18086 L 2800,18336 3050,18336 3050,18086 2800,18086 Z"/>
 <path fill="rgb(0,69,134)" stroke="none" d="M 3827,18164 L 3827,18414 4077,18414 4077,18164 3827,18164 Z"/>
 <path fill="none" stroke="rgb(0,69,134)" stroke-linejoin="round" d="M 3827,18164 L 3827,18414 4077,18414 4077,18164 3827,18164 Z"/>
 <path fill="rgb(0,69,134)" stroke="none" d="M 4854,18009 L 4854,18259 5104,18259 5104,18009 4854,18009 Z"/>
 <path fill="none" stroke="rgb(0,69,134)" stroke-linejoin="round" d="M 4854,18009 L 4854,18259 5104,18259 5104,18009 4854,18009 Z"/>
 <path fill="rgb(0,69,134)" stroke="none" d="M 5881,17854 L 5881,18104 6131,18104 6131,17854 5881,17854 Z"/>
 <path fill="none" stroke="rgb(0,69,134)" stroke-linejoin="round" d="M 5881,17854 L 5881,18104 6131,18104 6131,17854 5881,17854 Z"/>
 <path fill="rgb(0,69,134)" stroke="none" d="M 6908,18164 L 6908,18414 7158,18414 7158,18164 6908,18164 Z"/>
 <path fill="none" stroke="rgb(0,69,134)" stroke-linejoin="round" d="M 6908,18164 L 6908,18414 7158,18414 7158,18164 6908,18164 Z"/>
 <path fill="rgb(0,69,134)" stroke="none" d="M 7935,17312 L 7935,17562 8184,17562 8184,17312 7935,17312 Z"/>
 <path fill="none" stroke="rgb(0,69,134)" stroke-linejoin="round" d="M 7935,17312 L 7935,17562 8184,17562 8184,17312 7935,17312 Z"/>
 <path fill="rgb(0,69,134)" stroke="none" d="M 8961,17854 L 8961,18104 9211,18104 9211,17854 8961,17854 Z"/>
 <path fill="none" stroke="rgb(0,69,134)" stroke-linejoin="round" d="M 8961,17854 L 8961,18104 9211,18104 9211,17854 8961,17854 Z"/>
 <path fill="none" stroke="rgb(255,66,14)" stroke-width="80" stroke-linejoin="round" d="M 2925,16896 L 3952,17437 4979,18134 6006,17979 7033,18056 8059,17747 9086,15890"/>
 <path fill="rgb(255,66,14)" stroke="none" d="M 2800,16896 L 2925,17021 3050,16896 2925,16771 2800,16896 Z"/>
 <path fill="none" stroke="rgb(255,66,14)" stroke-linejoin="round" d="M 2800,16896 L 2925,17021 3050,16896 2925,16771 2800,16896 Z"/>
 <path fill="rgb(255,66,14)" stroke="none" d="M 3827,17437 L 3952,17562 4077,17437 3952,17312 3827,17437 Z"/>
 <path fill="none" stroke="rgb(255,66,14)" stroke-linejoin="round" d="M 3827,17437 L 3952,17562 4077,17437 3952,17312 3827,17437 Z"/>
 <path fill="rgb(255,66,14)" stroke="none" d="M 4854,18134 L 4979,18259 5104,18134 4979,18009 4854,18134 Z"/>
 <path fill="none" stroke="rgb(255,66,14)" stroke-linejoin="round" d="M 4854,18134 L 4979,18259 5104,18134 4979,18009 4854,18134 Z"/>
 <path fill="rgb(255,66,14)" stroke="none" d="M 5881,17979 L 6006,18104 6131,17979 6006,17854 5881,17979 Z"/>
 <path fill="none" stroke="rgb(255,66,14)" stroke-linejoin="round" d="M 5881,17979 L 6006,18104 6131,17979 6006,17854 5881,17979 Z"/>
 <path fill="rgb(255,66,14)" stroke="none" d="M 6908,18056 L 7033,18181 7158,18056 7033,17931 6908,18056 Z"/>
 <path fill="none" stroke="rgb(255,66,14)" stroke-linejoin="round" d="M 6908,18056 L 7033,18181 7158,18056 7033,17931 6908,18056 Z"/>
 <path fill="rgb(255,66,14)" stroke="none" d="M 7935,17747 L 8059,17872 8184,17747 8059,17622 7935,17747 Z"/>
 <path fill="none" stroke="rgb(255,66,14)" stroke-linejoin="round" d="M 7935,17747 L 8059,17872 8184,17747 8059,17622 7935,17747 Z"/>
 <path fill="rgb(255,66,14)" stroke="none" d="M 8961,15890 L 9086,16015 9211,15890 9086,15765 8961,15890 Z"/>
 <path fill="none" stroke="rgb(255,66,14)" stroke-linejoin="round" d="M 8961,15890 L 9086,16015 9211,15890 9086,15765 8961,15890 Z"/>
 <path fill="none" stroke="rgb(255,211,32)" stroke-width="80" stroke-linejoin="round" d="M 2925,4982 L 3952,16122 4979,17051 6006,17437 7033,15735 8059,16741 9086,16200"/>
 <path fill="rgb(255,211,32)" stroke="none" d="M 2800,4857 L 2925,5107 3050,4857 2800,4857 Z"/>
 <path fill="none" stroke="rgb(255,211,32)" stroke-linejoin="round" d="M 2800,4857 L 2925,5107 3050,4857 2800,4857 Z"/>
 <path fill="rgb(255,211,32)" stroke="none" d="M 3827,15997 L 3952,16247 4077,15997 3827,15997 Z"/>
 <path fill="none" stroke="rgb(255,211,32)" stroke-linejoin="round" d="M 3827,15997 L 3952,16247 4077,15997 3827,15997 Z"/>
 <path fill="rgb(255,211,32)" stroke="none" d="M 4854,16926 L 4979,17176 5104,16926 4854,16926 Z"/>
 <path fill="none" stroke="rgb(255,211,32)" stroke-linejoin="round" d="M 4854,16926 L 4979,17176 5104,16926 4854,16926 Z"/>
 <path fill="rgb(255,211,32)" stroke="none" d="M 5881,17312 L 6006,17562 6131,17312 5881,17312 Z"/>
 <path fill="none" stroke="rgb(255,211,32)" stroke-linejoin="round" d="M 5881,17312 L 6006,17562 6131,17312 5881,17312 Z"/>
 <path fill="rgb(255,211,32)" stroke="none" d="M 6908,15610 L 7033,15860 7158,15610 6908,15610 Z"/>
 <path fill="none" stroke="rgb(255,211,32)" stroke-linejoin="round" d="M 6908,15610 L 7033,15860 7158,15610 6908,15610 Z"/>
 <path fill="rgb(255,211,32)" stroke="none" d="M 7935,16616 L 8059,16866 8184,16616 7935,16616 Z"/>
 <path fill="none" stroke="rgb(255,211,32)" stroke-linejoin="round" d="M 7935,16616 L 8059,16866 8184,16616 7935,16616 Z"/>
 <path fill="rgb(255,211,32)" stroke="none" d="M 8961,16075 L 9086,16325 9211,16075 8961,16075 Z"/>
 <path fill="none" stroke="rgb(255,211,32)" stroke-linejoin="round" d="M 8961,16075 L 9086,16325 9211,16075 8961,16075 Z"/>
 <path fill="none" stroke="rgb(87,157,28)" stroke-width="80" stroke-linejoin="round" d="M 2925,7845 L 3952,16122 4979,16509 6006,17360 7033,17051 8059,16664 9086,17205"/>
 <path fill="rgb(87,157,28)" stroke="none" d="M 2800,7970 L 3050,7970 2925,7720 2800,7970 Z"/>
 <path fill="none" stroke="rgb(87,157,28)" stroke-linejoin="round" d="M 2800,7970 L 3050,7970 2925,7720 2800,7970 Z"/>
 <path fill="rgb(87,157,28)" stroke="none" d="M 3827,16247 L 4077,16247 3952,15997 3827,16247 Z"/>
 <path fill="none" stroke="rgb(87,157,28)" stroke-linejoin="round" d="M 3827,16247 L 4077,16247 3952,15997 3827,16247 Z"/>
 <path fill="rgb(87,157,28)" stroke="none" d="M 4854,16634 L 5104,16634 4979,16384 4854,16634 Z"/>
 <path fill="none" stroke="rgb(87,157,28)" stroke-linejoin="round" d="M 4854,16634 L 5104,16634 4979,16384 4854,16634 Z"/>
 <path fill="rgb(87,157,28)" stroke="none" d="M 5881,17485 L 6131,17485 6006,17235 5881,17485 Z"/>
 <path fill="none" stroke="rgb(87,157,28)" stroke-linejoin="round" d="M 5881,17485 L 6131,17485 6006,17235 5881,17485 Z"/>
 <path fill="rgb(87,157,28)" stroke="none" d="M 6908,17176 L 7158,17176 7033,16926 6908,17176 Z"/>
 <path fill="none" stroke="rgb(87,157,28)" stroke-linejoin="round" d="M 6908,17176 L 7158,17176 7033,16926 6908,17176 Z"/>
 <path fill="rgb(87,157,28)" stroke="none" d="M 7935,16789 L 8184,16789 8059,16539 7935,16789 Z"/>
 <path fill="none" stroke="rgb(87,157,28)" stroke-linejoin="round" d="M 7935,16789 L 8184,16789 8059,16539 7935,16789 Z"/>
 <path fill="rgb(87,157,28)" stroke="none" d="M 8961,17330 L 9211,17330 9086,17080 8961,17330 Z"/>
 <path fill="none" stroke="rgb(87,157,28)" stroke-linejoin="round" d="M 8961,17330 L 9211,17330 9086,17080 8961,17330 Z"/>
 <path fill="none" stroke="rgb(126,0,33)" stroke-width="80" stroke-linejoin="round" d="M 6006,10861 L 7033,17051 8059,11712 9086,17670"/>
 <path fill="rgb(126,0,33)" stroke="none" d="M 5881,10736 L 5881,10986 6131,10861 5881,10736 Z"/>
 <path fill="none" stroke="rgb(126,0,33)" stroke-linejoin="round" d="M 5881,10736 L 5881,10986 6131,10861 5881,10736 Z"/>
 <path fill="rgb(126,0,33)" stroke="none" d="M 6908,16926 L 6908,17176 7158,17051 6908,16926 Z"/>
 <path fill="none" stroke="rgb(126,0,33)" stroke-linejoin="round" d="M 6908,16926 L 6908,17176 7158,17051 6908,16926 Z"/>
 <path fill="rgb(126,0,33)" stroke="none" d="M 7935,11587 L 7935,11837 8184,11712 7935,11587 Z"/>
 <path fill="none" stroke="rgb(126,0,33)" stroke-linejoin="round" d="M 7935,11587 L 7935,11837 8184,11712 7935,11587 Z"/>
 <path fill="rgb(126,0,33)" stroke="none" d="M 8961,17545 L 8961,17795 9211,17670 8961,17545 Z"/>
 <path fill="none" stroke="rgb(126,0,33)" stroke-linejoin="round" d="M 8961,17545 L 8961,17795 9211,17670 8961,17545 Z"/>
 <path fill="none" stroke="rgb(131,202,255)" stroke-width="80" stroke-linejoin="round" d="M 6006,14729 L 7033,17902 8059,17670 9086,18289"/>
 <path fill="rgb(131,202,255)" stroke="none" d="M 5881,14729 L 6131,14854 6131,14604 5881,14729 Z"/>
 <path fill="none" stroke="rgb(131,202,255)" stroke-linejoin="round" d="M 5881,14729 L 6131,14854 6131,14604 5881,14729 Z"/>
 <path fill="rgb(131,202,255)" stroke="none" d="M 6908,17902 L 7158,18027 7158,17777 6908,17902 Z"/>
 <path fill="none" stroke="rgb(131,202,255)" stroke-linejoin="round" d="M 6908,17902 L 7158,18027 7158,17777 6908,17902 Z"/>
 <path fill="rgb(131,202,255)" stroke="none" d="M 7935,17670 L 8184,17795 8184,17545 7935,17670 Z"/>
 <path fill="none" stroke="rgb(131,202,255)" stroke-linejoin="round" d="M 7935,17670 L 8184,17795 8184,17545 7935,17670 Z"/>
 <path fill="rgb(131,202,255)" stroke="none" d="M 8961,18289 L 9211,18414 9211,18164 8961,18289 Z"/>
 <path fill="none" stroke="rgb(131,202,255)" stroke-linejoin="round" d="M 8961,18289 L 9211,18414 9211,18164 8961,18289 Z"/>
 <path fill="none" stroke="rgb(49,64,4)" stroke-width="80" stroke-linejoin="round" d="M 8059,16277 L 9086,18056"/>
 <path fill="rgb(49,64,4)" stroke="none" d="M 7935,16152 L 7935,16402 8184,16152 8184,16402 7935,16152 Z"/>
 <path fill="none" stroke="rgb(49,64,4)" stroke-linejoin="round" d="M 7935,16152 L 7935,16402 8184,16152 8184,16402 7935,16152 Z"/>
 <path fill="rgb(49,64,4)" stroke="none" d="M 8961,17931 L 8961,18181 9211,17931 9211,18181 8961,17931 Z"/>
 <path fill="none" stroke="rgb(49,64,4)" stroke-linejoin="round" d="M 8961,17931 L 8961,18181 9211,17931 9211,18181 8961,17931 Z"/>
 <path fill="none" stroke="rgb(174,207,0)" stroke-width="80" stroke-linejoin="round" d="M 8059,18289 L 9086,18056"/>
 <path fill="rgb(174,207,0)" stroke="none" d="M 7935,18414 L 8184,18414 7935,18164 8184,18164 7935,18414 Z"/>
 <path fill="none" stroke="rgb(174,207,0)" stroke-linejoin="round" d="M 7935,18414 L 8184,18414 7935,18164 8184,18164 7935,18414 Z"/>
 <path fill="rgb(174,207,0)" stroke="none" d="M 8961,18181 L 9211,18181 8961,17931 9211,17931 8961,18181 Z"/>
 <path fill="none" stroke="rgb(174,207,0)" stroke-linejoin="round" d="M 8961,18181 L 9211,18181 8961,17931 9211,17931 8961,18181 Z"/>
 <path fill="rgb(75,31,111)" stroke="none" d="M 9211,3976 L 9210,3971 9210,3965 9209,3960 9209,3954 9208,3949 9206,3944 9205,3938 9203,3933 9201,3928 9199,3923 9196,3918 9194,3914 9191,3909 9188,3904 9185,3900 9181,3896 9178,3892 9174,3888 9170,3884 9166,3880 9162,3877 9157,3874 9153,3871 9148,3868 9143,3865 9138,3863 9133,3861 9128,3859 9123,3857 9118,3855 9113,3854 9107,3853 9102,3852 9096,3852 9091,3851 9086,3851 9080,3851 9075,3852 9069,3852 9064,3853 9058,3854 9053,3855 9048,3857 9043,3859 9038,3861 9033,3863 9028,3865 9023,3868 9018,3871 9014,3874 9009,3877 9005,3880 9001,3884 8997,3888 8993,3892 8990,3896 8986,3900 8983,3904 8980,3909 8977,3914 8975,3918 8972,3923 8970,3928 8968,3933 8966,3938 8965,3944 8963,3949 8962,3954 8962,3960 8961,3965 8961,3971 8961,3976 8961,3982 8961,3987 8962,3992 8962,3998 8963,4003 8965,4008 8966,4014 8968,4019 8970,4024 8972,4029 8975,4034 8977,4039 8980,4043 8983,4048 8986,4052 8990,4056 8993,4060 8997,4064 9001,4068 9005,4072 9009,4075 9014,4078 9018,4081 9023,4084 9028,4087 9033,4089 9038,4092 9043,4094 9048,4095 9053,4097 9058,4098 9064,4099 9069,4100 9075,4101 9080,4101 9086,4101 9091,4101 9096,4101 9102,4100 9107,4099 9113,4098 9118,4097 9123,4095 9128,4094 9133,4092 9138,4089 9143,4087 9148,4084 9153,4081 9157,4078 9162,4075 9166,4072 9170,4068 9174,4064 9178,4060 9181,4056 9185,4052 9188,4048 9191,4043 9194,4039 9196,4034 9199,4029 9201,4024 9203,4019 9205,4014 9206,4008 9208,4003 9209,3998 9209,3992 9210,3987 9210,3982 9211,3976 Z"/>
 <path fill="none" stroke="rgb(75,31,111)" stroke-linejoin="round" d="M 9211,3976 L 9210,3971 9210,3965 9209,3960 9209,3954 9208,3949 9206,3944 9205,3938 9203,3933 9201,3928 9199,3923 9196,3918 9194,3914 9191,3909 9188,3904 9185,3900 9181,3896 9178,3892 9174,3888 9170,3884 9166,3880 9162,3877 9157,3874 9153,3871 9148,3868 9143,3865 9138,3863 9133,3861 9128,3859 9123,3857 9118,3855 9113,3854 9107,3853 9102,3852 9096,3852 9091,3851 9086,3851 9080,3851 9075,3852 9069,3852 9064,3853 9058,3854 9053,3855 9048,3857 9043,3859 9038,3861 9033,3863 9028,3865 9023,3868 9018,3871 9014,3874 9009,3877 9005,3880 9001,3884 8997,3888 8993,3892 8990,3896 8986,3900 8983,3904 8980,3909 8977,3914 8975,3918 8972,3923 8970,3928 8968,3933 8966,3938 8965,3944 8963,3949 8962,3954 8962,3960 8961,3965 8961,3971 8961,3976 8961,3982 8961,3987 8962,3992 8962,3998 8963,4003 8965,4008 8966,4014 8968,4019 8970,4024 8972,4029 8975,4034 8977,4039 8980,4043 8983,4048 8986,4052 8990,4056 8993,4060 8997,4064 9001,4068 9005,4072 9009,4075 9014,4078 9018,4081 9023,4084 9028,4087 9033,4089 9038,4092 9043,4094 9048,4095 9053,4097 9058,4098 9064,4099 9069,4100 9075,4101 9080,4101 9086,4101 9091,4101 9096,4101 9102,4100 9107,4099 9113,4098 9118,4097 9123,4095 9128,4094 9133,4092 9138,4089 9143,4087 9148,4084 9153,4081 9157,4078 9162,4075 9166,4072 9170,4068 9174,4064 9178,4060 9181,4056 9185,4052 9188,4048 9191,4043 9194,4039 9196,4034 9199,4029 9201,4024 9203,4019 9205,4014 9206,4008 9208,4003 9209,3998 9209,3992 9210,3987 9210,3982 9211,3976 Z"/>
 <text class="TextShape" transform="rotate(-45 1121 19625)"><tspan class="TextParagraph" font-family="Liberation Sans, sans-serif" font-size="353px" font-weight="400"><tspan class="TextPosition" x="1121" y="19625"><tspan fill="rgb(0,0,0)" stroke="none">-201909</tspan></tspan></tspan></text>
 <text class="TextShape" transform="rotate(-45 2147 19625)"><tspan class="TextParagraph" font-family="Liberation Sans, sans-serif" font-size="353px" font-weight="400"><tspan class="TextPosition" x="2147" y="19625"><tspan fill="rgb(0,0,0)" stroke="none">-202003</tspan></tspan></tspan></text>
 <text class="TextShape" transform="rotate(-45 3174 19625)"><tspan class="TextParagraph" font-family="Liberation Sans, sans-serif" font-size="353px" font-weight="400"><tspan class="TextPosition" x="3174" y="19625"><tspan fill="rgb(0,0,0)" stroke="none">-202009</tspan></tspan></tspan></text>
 <text class="TextShape" transform="rotate(-45 4201 19625)"><tspan class="TextParagraph" font-family="Liberation Sans, sans-serif" font-size="353px" font-weight="400"><tspan class="TextPosition" x="4201" y="19625"><tspan fill="rgb(0,0,0)" stroke="none">-202103</tspan></tspan></tspan></text>
 <text class="TextShape" transform="rotate(-45 5228 19625)"><tspan class="TextParagraph" font-family="Liberation Sans, sans-serif" font-size="353px" font-weight="400"><tspan class="TextPosition" x="5228" y="19625"><tspan fill="rgb(0,0,0)" stroke="none">-202109</tspan></tspan></tspan></text>
 <text class="TextShape" transform="rotate(-45 6255 19625)"><tspan class="TextParagraph" font-family="Liberation Sans, sans-serif" font-size="353px" font-weight="400"><tspan class="TextPosition" x="6255" y="19625"><tspan fill="rgb(0,0,0)" stroke="none">-202203</tspan></tspan></tspan></text>
 <text class="TextShape" transform="rotate(-45 7282 19625)"><tspan class="TextParagraph" font-family="Liberation Sans, sans-serif" font-size="353px" font-weight="400"><tspan class="TextPosition" x="7282" y="19625"><tspan fill="rgb(0,0,0)" stroke="none">-202209</tspan></tspan></tspan></text>
 <text class="TextShape" transform="rotate(-45 8309 19625)"><tspan class="TextParagraph" font-family="Liberation Sans, sans-serif" font-size="353px" font-weight="400"><tspan class="TextPosition" x="8309" y="19625"><tspan fill="rgb(0,0,0)" stroke="none">-202303</tspan></tspan></tspan></text>
 <text class="TextShape"><tspan class="TextParagraph" font-family="Liberation Sans, sans-serif" font-size="353px" font-weight="400"><tspan class="TextPosition" x="1464" y="18410"><tspan fill="rgb(0,0,0)" stroke="none">0</tspan></tspan></tspan></text>
 <text class="TextShape"><tspan class="TextParagraph" font-family="Liberation Sans, sans-serif" font-size="353px" font-weight="400"><tspan class="TextPosition" x="1279" y="16862"><tspan fill="rgb(0,0,0)" stroke="none">20</tspan></tspan></tspan></text>
 <text class="TextShape"><tspan class="TextParagraph" font-family="Liberation Sans, sans-serif" font-size="353px" font-weight="400"><tspan class="TextPosition" x="1279" y="15315"><tspan fill="rgb(0,0,0)" stroke="none">40</tspan></tspan></tspan></text>
 <text class="TextShape"><tspan class="TextParagraph" font-family="Liberation Sans, sans-serif" font-size="353px" font-weight="400"><tspan class="TextPosition" x="1279" y="13767"><tspan fill="rgb(0,0,0)" stroke="none">60</tspan></tspan></tspan></text>
 <text class="TextShape"><tspan class="TextParagraph" font-family="Liberation Sans, sans-serif" font-size="353px" font-weight="400"><tspan class="TextPosition" x="1279" y="12220"><tspan fill="rgb(0,0,0)" stroke="none">80</tspan></tspan></tspan></text>
 <text class="TextShape"><tspan class="TextParagraph" font-family="Liberation Sans, sans-serif" font-size="353px" font-weight="400"><tspan class="TextPosition" x="1093" y="10673"><tspan fill="rgb(0,0,0)" stroke="none">100</tspan></tspan></tspan></text>
 <text class="TextShape"><tspan class="TextParagraph" font-family="Liberation Sans, sans-serif" font-size="353px" font-weight="400"><tspan class="TextPosition" x="1093" y="9125"><tspan fill="rgb(0,0,0)" stroke="none">120</tspan></tspan></tspan></text>
 <text class="TextShape"><tspan class="TextParagraph" font-family="Liberation Sans, sans-serif" font-size="353px" font-weight="400"><tspan class="TextPosition" x="1093" y="7578"><tspan fill="rgb(0,0,0)" stroke="none">140</tspan></tspan></tspan></text>
 <text class="TextShape"><tspan class="TextParagraph" font-family="Liberation Sans, sans-serif" font-size="353px" font-weight="400"><tspan class="TextPosition" x="1093" y="6030"><tspan fill="rgb(0,0,0)" stroke="none">160</tspan></tspan></tspan></text>
 <text class="TextShape"><tspan class="TextParagraph" font-family="Liberation Sans, sans-serif" font-size="353px" font-weight="400"><tspan class="TextPosition" x="1093" y="4483"><tspan fill="rgb(0,0,0)" stroke="none">180</tspan></tspan></tspan></text>
 <text class="TextShape"><tspan class="TextParagraph" font-family="Liberation Sans, sans-serif" font-size="353px" font-weight="400"><tspan class="TextPosition" x="1093" y="2936"><tspan fill="rgb(0,0,0)" stroke="none">200</tspan></tspan></tspan></text>
 <text class="TextShape"><tspan class="TextParagraph" font-family="IPAPGothic, sans-serif" font-size="459px" font-weight="400"><tspan class="TextPosition" x="3193" y="1095"><tspan fill="rgb(0,0,0)" stroke="none">国立国会図書館納本</tspan><tspan font-family="Liberation Sans, sans-serif" fill="rgb(0,0,0)" stroke="none">DAISY</tspan><tspan fill="rgb(0,0,0)" stroke="none">版自主制作利用状況</tspan></tspan></tspan></text>
 <text class="TextShape"><tspan class="TextParagraph" font-family="IPAPGothic, sans-serif" font-size="388px" font-weight="400"><tspan class="TextPosition" x="5960" y="2224"><tspan fill="rgb(0,0,0)" stroke="none">音訳グループ　やまびこ</tspan></tspan></tspan></text>
 <path fill="none" stroke="rgb(0,69,134)" stroke-width="80" stroke-linejoin="round" d="M 10043,7592 L 10843,7592"/>
 <path fill="rgb(0,69,134)" stroke="none" d="M 10337,7487 L 10337,7698 10548,7698 10548,7487 10337,7487 Z"/>
 <path fill="none" stroke="rgb(0,69,134)" stroke-linejoin="round" d="M 10337,7487 L 10337,7698 10548,7698 10548,7487 10337,7487 Z"/>
 <path fill="none" stroke="rgb(255,66,14)" stroke-width="80" stroke-linejoin="round" d="M 10043,8487 L 10843,8487"/>
 <path fill="rgb(255,66,14)" stroke="none" d="M 10337,8487 L 10443,8593 10548,8487 10443,8382 10337,8487 Z"/>
 <path fill="none" stroke="rgb(255,66,14)" stroke-linejoin="round" d="M 10337,8487 L 10443,8593 10548,8487 10443,8382 10337,8487 Z"/>
 <path fill="none" stroke="rgb(255,211,32)" stroke-width="80" stroke-linejoin="round" d="M 10043,8985 L 10843,8985"/>
 <path fill="rgb(255,211,32)" stroke="none" d="M 10337,8880 L 10443,9091 10548,8880 10337,8880 Z"/>
 <path fill="none" stroke="rgb(255,211,32)" stroke-linejoin="round" d="M 10337,8880 L 10443,9091 10548,8880 10337,8880 Z"/>
 <path fill="none" stroke="rgb(87,157,28)" stroke-width="80" stroke-linejoin="round" d="M 10043,9827 L 10843,9827"/>
 <path fill="rgb(87,157,28)" stroke="none" d="M 10337,9933 L 10548,9933 10443,9722 10337,9933 Z"/>
 <path fill="none" stroke="rgb(87,157,28)" stroke-linejoin="round" d="M 10337,9933 L 10548,9933 10443,9722 10337,9933 Z"/>
 <path fill="none" stroke="rgb(126,0,33)" stroke-width="80" stroke-linejoin="round" d="M 10043,10668 L 10843,10668"/>
 <path fill="rgb(126,0,33)" stroke="none" d="M 10337,10564 L 10337,10774 10548,10668 10337,10564 Z"/>
 <path fill="none" stroke="rgb(126,0,33)" stroke-linejoin="round" d="M 10337,10564 L 10337,10774 10548,10668 10337,10564 Z"/>
 <path fill="none" stroke="rgb(131,202,255)" stroke-width="80" stroke-linejoin="round" d="M 10043,11166 L 10843,11166"/>
 <path fill="rgb(131,202,255)" stroke="none" d="M 10337,11166 L 10548,11272 10548,11061 10337,11166 Z"/>
 <path fill="none" stroke="rgb(131,202,255)" stroke-linejoin="round" d="M 10337,11166 L 10548,11272 10548,11061 10337,11166 Z"/>
 <path fill="none" stroke="rgb(49,64,4)" stroke-width="80" stroke-linejoin="round" d="M 10043,12008 L 10843,12008"/>
 <path fill="rgb(49,64,4)" stroke="none" d="M 10337,11903 L 10337,12114 10548,11903 10548,12114 10337,11903 Z"/>
 <path fill="none" stroke="rgb(49,64,4)" stroke-linejoin="round" d="M 10337,11903 L 10337,12114 10548,11903 10548,12114 10337,11903 Z"/>
 <path fill="none" stroke="rgb(174,207,0)" stroke-width="80" stroke-linejoin="round" d="M 10043,12850 L 10843,12850"/>
 <path fill="rgb(174,207,0)" stroke="none" d="M 10337,12956 L 10548,12956 10337,12745 10548,12745 10337,12956 Z"/>
 <path fill="none" stroke="rgb(174,207,0)" stroke-linejoin="round" d="M 10337,12956 L 10548,12956 10337,12745 10548,12745 10337,12956 Z"/>
 <path fill="none" stroke="rgb(75,31,111)" stroke-width="80" stroke-linejoin="round" d="M 10043,13692 L 10843,13692"/>
 <path fill="rgb(75,31,111)" stroke="none" d="M 10548,13692 L 10548,13687 10548,13683 10547,13678 10546,13674 10545,13669 10544,13665 10543,13660 10542,13656 10540,13652 10538,13647 10536,13643 10534,13639 10531,13635 10529,13631 10526,13628 10523,13624 10520,13621 10517,13617 10514,13614 10510,13611 10507,13608 10503,13606 10499,13603 10495,13601 10491,13598 10487,13596 10483,13595 10479,13593 10474,13591 10470,13590 10465,13589 10461,13588 10456,13587 10452,13587 10447,13587 10443,13587 10438,13587 10433,13587 10429,13587 10424,13588 10420,13589 10415,13590 10411,13591 10406,13593 10402,13595 10398,13596 10394,13598 10390,13601 10386,13603 10382,13606 10378,13608 10375,13611 10371,13614 10368,13617 10365,13621 10362,13624 10359,13628 10356,13631 10354,13635 10351,13639 10349,13643 10347,13647 10345,13652 10343,13656 10342,13660 10341,13665 10340,13669 10339,13674 10338,13678 10337,13683 10337,13687 10337,13692 10337,13697 10337,13701 10338,13706 10339,13710 10340,13715 10341,13719 10342,13724 10343,13728 10345,13732 10347,13737 10349,13741 10351,13745 10354,13749 10356,13753 10359,13756 10362,13760 10365,13763 10368,13767 10371,13770 10375,13773 10378,13776 10382,13778 10386,13781 10390,13783 10394,13786 10398,13788 10402,13789 10406,13791 10411,13793 10415,13794 10420,13795 10424,13796 10429,13797 10433,13797 10438,13797 10443,13798 10447,13797 10452,13797 10456,13797 10461,13796 10465,13795 10470,13794 10474,13793 10479,13791 10483,13789 10487,13788 10491,13786 10495,13783 10499,13781 10503,13778 10507,13776 10510,13773 10514,13770 10517,13767 10520,13763 10523,13760 10526,13756 10529,13753 10531,13749 10534,13745 10536,13741 10538,13737 10540,13732 10542,13728 10543,13724 10544,13719 10545,13715 10546,13710 10547,13706 10548,13701 10548,13697 10548,13692 Z"/>
 <path fill="none" stroke="rgb(75,31,111)" stroke-linejoin="round" d="M 10548,13692 L 10548,13687 10548,13683 10547,13678 10546,13674 10545,13669 10544,13665 10543,13660 10542,13656 10540,13652 10538,13647 10536,13643 10534,13639 10531,13635 10529,13631 10526,13628 10523,13624 10520,13621 10517,13617 10514,13614 10510,13611 10507,13608 10503,13606 10499,13603 10495,13601 10491,13598 10487,13596 10483,13595 10479,13593 10474,13591 10470,13590 10465,13589 10461,13588 10456,13587 10452,13587 10447,13587 10443,13587 10438,13587 10433,13587 10429,13587 10424,13588 10420,13589 10415,13590 10411,13591 10406,13593 10402,13595 10398,13596 10394,13598 10390,13601 10386,13603 10382,13606 10378,13608 10375,13611 10371,13614 10368,13617 10365,13621 10362,13624 10359,13628 10356,13631 10354,13635 10351,13639 10349,13643 10347,13647 10345,13652 10343,13656 10342,13660 10341,13665 10340,13669 10339,13674 10338,13678 10337,13683 10337,13687 10337,13692 10337,13697 10337,13701 10338,13706 10339,13710 10340,13715 10341,13719 10342,13724 10343,13728 10345,13732 10347,13737 10349,13741 10351,13745 10354,13749 10356,13753 10359,13756 10362,13760 10365,13763 10368,13767 10371,13770 10375,13773 10378,13776 10382,13778 10386,13781 10390,13783 10394,13786 10398,13788 10402,13789 10406,13791 10411,13793 10415,13794 10420,13795 10424,13796 10429,13797 10433,13797 10438,13797 10443,13798 10447,13797 10452,13797 10456,13797 10461,13796 10465,13795 10470,13794 10474,13793 10479,13791 10483,13789 10487,13788 10491,13786 10495,13783 10499,13781 10503,13778 10507,13776 10510,13773 10514,13770 10517,13767 10520,13763 10523,13760 10526,13756 10529,13753 10531,13749 10534,13745 10536,13741 10538,13737 10540,13732 10542,13728 10543,13724 10544,13719 10545,13715 10546,13710 10547,13706 10548,13701 10548,13697 10548,13692 Z"/>
 <text class="TextShape"><tspan class="TextParagraph" font-family="IPAPGothic, sans-serif" font-size="353px" font-weight="400"><tspan class="TextPosition" x="10943" y="7712"><tspan fill="rgb(0,0,0)" stroke="none">ゴルフ規則 プレーヤーズ版</tspan><tspan font-family="Liberation Sans, sans-serif" fill="rgb(0,0,0)" stroke="none">: </tspan></tspan><tspan class="TextPosition" x="10943" y="8109"><tspan font-family="Liberation Sans, sans-serif" fill="rgb(0,0,0)" stroke="none">2019</tspan><tspan fill="rgb(0,0,0)" stroke="none">年</tspan><tspan font-family="Liberation Sans, sans-serif" fill="rgb(0,0,0)" stroke="none">1</tspan><tspan fill="rgb(0,0,0)" stroke="none">月施行</tspan></tspan></tspan></text>
 <text class="TextShape"><tspan class="TextParagraph" font-family="IPAPGothic, sans-serif" font-size="353px" font-weight="400"><tspan class="TextPosition" x="10943" y="8607"><tspan fill="rgb(0,0,0)" stroke="none">老女マノン・脂粉の顔 </tspan><tspan font-family="Liberation Sans, sans-serif" fill="rgb(0,0,0)" stroke="none">: </tspan><tspan fill="rgb(0,0,0)" stroke="none">他四篇</tspan></tspan></tspan></text>
 <text class="TextShape"><tspan class="TextParagraph" font-family="IPAPGothic, sans-serif" font-size="353px" font-weight="400"><tspan class="TextPosition" x="10943" y="9105"><tspan fill="rgb(0,0,0)" stroke="none">おいしい</tspan><tspan font-family="Liberation Sans, sans-serif" fill="rgb(0,0,0)" stroke="none">!</tspan><tspan fill="rgb(0,0,0)" stroke="none">冷凍保存レシピ </tspan><tspan font-family="Liberation Sans, sans-serif" fill="rgb(0,0,0)" stroke="none">: </tspan><tspan fill="rgb(0,0,0)" stroke="none">か</tspan></tspan><tspan class="TextPosition" x="10943" y="9475"><tspan fill="rgb(0,0,0)" stroke="none">んたん節約すぐできる</tspan></tspan></tspan></text>
 <text class="TextShape"><tspan class="TextParagraph" font-family="IPAPGothic, sans-serif" font-size="353px" font-weight="400"><tspan class="TextPosition" x="10943" y="9947"><tspan fill="rgb(0,0,0)" stroke="none">体感して学ぶヨガの運動学 </tspan><tspan font-family="Liberation Sans, sans-serif" fill="rgb(0,0,0)" stroke="none">: </tspan><tspan fill="rgb(0,0,0)" stroke="none">体</tspan></tspan><tspan class="TextPosition" x="10943" y="10317"><tspan fill="rgb(0,0,0)" stroke="none">にやさしく効率的な動かし方</tspan></tspan></tspan></text>
 <text class="TextShape"><tspan class="TextParagraph" font-family="Liberation Sans, sans-serif" font-size="353px" font-weight="400"><tspan class="TextPosition" x="10943" y="10788"><tspan font-family="IPAPGothic, sans-serif" fill="rgb(0,0,0)" stroke="none">子規</tspan><tspan fill="rgb(0,0,0)" stroke="none">365</tspan><tspan font-family="IPAPGothic, sans-serif" fill="rgb(0,0,0)" stroke="none">日</tspan></tspan></tspan></text>
 <text class="TextShape"><tspan class="TextParagraph" font-family="IPAPGothic, sans-serif" font-size="353px" font-weight="400"><tspan class="TextPosition" x="10943" y="11286"><tspan fill="rgb(0,0,0)" stroke="none">言霊太郎の大冒険 </tspan><tspan font-family="Liberation Sans, sans-serif" fill="rgb(0,0,0)" stroke="none">: </tspan><tspan fill="rgb(0,0,0)" stroke="none">想いをの</tspan></tspan><tspan class="TextPosition" x="10943" y="11656"><tspan fill="rgb(0,0,0)" stroke="none">せて</tspan></tspan></tspan></text>
 <text class="TextShape"><tspan class="TextParagraph" font-family="IPAPGothic, sans-serif" font-size="353px" font-weight="400"><tspan class="TextPosition" x="10943" y="12101"><tspan fill="rgb(0,0,0)" stroke="none">しばいのすきなえんまさん</tspan></tspan><tspan class="TextPosition" x="10943" y="12472"><tspan font-family="Liberation Sans, sans-serif" fill="rgb(0,0,0)" stroke="none">DAISY2.02</tspan><tspan fill="rgb(0,0,0)" stroke="none">マルチメディア</tspan></tspan></tspan></text>
 <text class="TextShape"><tspan class="TextParagraph" font-family="IPAPGothic, sans-serif" font-size="353px" font-weight="400"><tspan class="TextPosition" x="10943" y="12943"><tspan fill="rgb(0,0,0)" stroke="none">しばいのすきなえんまさん</tspan></tspan><tspan class="TextPosition" x="10943" y="13314"><tspan font-family="Liberation Sans, sans-serif" fill="rgb(0,0,0)" stroke="none">EPUB3 </tspan></tspan></tspan></text>
 <text class="TextShape"><tspan class="TextParagraph" font-family="IPAPGothic, sans-serif" font-size="353px" font-weight="400"><tspan class="TextPosition" x="10943" y="13785"><tspan fill="rgb(0,0,0)" stroke="none">カーラリー殺人事件</tspan></tspan></tspan></text>
 <text class="TextShape"><tspan class="TextParagraph" font-family="IPAPGothic, sans-serif" font-size="318px" font-weight="400"><tspan class="TextPosition" x="5125" y="20691"><tspan fill="rgb(0,0,0)" stroke="none">年月</tspan></tspan></tspan></text>
 <text class="TextShape" transform="rotate(-90 837 12486)"><tspan class="TextParagraph" font-family="IPAPGothic, sans-serif" font-size="318px" font-weight="400"><tspan class="TextPosition" x="837" y="12486"><tspan fill="rgb(0,0,0)" stroke="none">ダウンロード件数</tspan></tspan></tspan></text>
</svg>