<?xml version="1.0" encoding="UTF-8"?>
<!DOCTYPE svg PUBLIC "-//W3C//DTD SVG 1.1//EN" "http://www.w3.org/Graphics/SVG/1.1/DTD/svg11.dtd">
<svg width="160mm" height="212mm" viewBox="0 0 16000 21200" version="1.1" xmlns="http://www.w3.org/2000/svg" xmlns:xlink="http://www.w3.org/1999/xlink" stroke-width="28.222" stroke-linejoin="round" xml:space="preserve">
 <path fill="rgb(255,255,255)" stroke="none" d="M 7998,21233 L 0,21233 0,0 15996,0 15996,21233 7998,21233 Z"/>
 <path fill="none" stroke="rgb(179,179,179)" stroke-linejoin="round" d="M 5973,18290 L 2085,18290 2085,2764 9861,2764 9861,18290 5973,18290 Z"/>
 <path fill="none" stroke="rgb(179,179,179)" stroke-linejoin="round" d="M 9861,18289 L 2085,18289"/>
 <path fill="none" stroke="rgb(179,179,179)" stroke-linejoin="round" d="M 9861,16070 L 2085,16070"/>
 <path fill="none" stroke="rgb(179,179,179)" stroke-linejoin="round" d="M 9861,13852 L 2085,13852"/>
 <path fill="none" stroke="rgb(179,179,179)" stroke-linejoin="round" d="M 9861,11634 L 2085,11634"/>
 <path fill="none" stroke="rgb(179,179,179)" stroke-linejoin="round" d="M 9861,9417 L 2085,9417"/>
 <path fill="none" stroke="rgb(179,179,179)" stroke-linejoin="round" d="M 9861,7199 L 2085,7199"/>
 <path fill="none" stroke="rgb(179,179,179)" stroke-linejoin="round" d="M 9861,4981 L 2085,4981"/>
 <path fill="none" stroke="rgb(179,179,179)" stroke-linejoin="round" d="M 9861,2763 L 2085,2763"/>
 <path fill="none" stroke="rgb(179,179,179)" stroke-linejoin="round" d="M 2085,18439 L 2085,18289"/>
 <path fill="none" stroke="rgb(179,179,179)" stroke-linejoin="round" d="M 2085,18439 L 2085,18289"/>
 <path fill="none" stroke="rgb(179,179,179)" stroke-linejoin="round" d="M 3196,18439 L 3196,18289"/>
 <path fill="none" stroke="rgb(179,179,179)" stroke-linejoin="round" d="M 3196,18439 L 3196,18289"/>
 <path fill="none" stroke="rgb(179,179,179)" stroke-linejoin="round" d="M 4307,18439 L 4307,18289"/>
 <path fill="none" stroke="rgb(179,179,179)" stroke-linejoin="round" d="M 4307,18439 L 4307,18289"/>
 <path fill="none" stroke="rgb(179,179,179)" stroke-linejoin="round" d="M 5418,18439 L 5418,18289"/>
 <path fill="none" stroke="rgb(179,179,179)" stroke-linejoin="round" d="M 5418,18439 L 5418,18289"/>
 <path fill="none" stroke="rgb(179,179,179)" stroke-linejoin="round" d="M 6529,18439 L 6529,18289"/>
 <path fill="none" stroke="rgb(179,179,179)" stroke-linejoin="round" d="M 6529,18439 L 6529,18289"/>
 <path fill="none" stroke="rgb(179,179,179)" stroke-linejoin="round" d="M 7639,18439 L 7639,18289"/>
 <path fill="none" stroke="rgb(179,179,179)" stroke-linejoin="round" d="M 7639,18439 L 7639,18289"/>
 <path fill="none" stroke="rgb(179,179,179)" stroke-linejoin="round" d="M 8750,18439 L 8750,18289"/>
 <path fill="none" stroke="rgb(179,179,179)" stroke-linejoin="round" d="M 8750,18439 L 8750,18289"/>
 <path fill="none" stroke="rgb(179,179,179)" stroke-linejoin="round" d="M 9861,18439 L 9861,18289"/>
 <path fill="none" stroke="rgb(179,179,179)" stroke-linejoin="round" d="M 9861,18439 L 9861,18289"/>
 <path fill="none" stroke="rgb(179,179,179)" stroke-linejoin="round" d="M 2085,18289 L 9861,18289"/>
 <path fill="none" stroke="rgb(179,179,179)" stroke-linejoin="round" d="M 1935,18289 L 2085,18289"/>
 <path fill="none" stroke="rgb(179,179,179)" stroke-linejoin="round" d="M 1935,18289 L 2085,18289"/>
 <path fill="none" stroke="rgb(179,179,179)" stroke-linejoin="round" d="M 1935,16070 L 2085,16070"/>
 <path fill="none" stroke="rgb(179,179,179)" stroke-linejoin="round" d="M 1935,16070 L 2085,16070"/>
 <path fill="none" stroke="rgb(179,179,179)" stroke-linejoin="round" d="M 1935,13852 L 2085,13852"/>
 <path fill="none" stroke="rgb(179,179,179)" stroke-linejoin="round" d="M 1935,13852 L 2085,13852"/>
 <path fill="none" stroke="rgb(179,179,179)" stroke-linejoin="round" d="M 1935,11634 L 2085,11634"/>
 <path fill="none" stroke="rgb(179,179,179)" stroke-linejoin="round" d="M 1935,11634 L 2085,11634"/>
 <path fill="none" stroke="rgb(179,179,179)" stroke-linejoin="round" d="M 1935,9417 L 2085,9417"/>
 <path fill="none" stroke="rgb(179,179,179)" stroke-linejoin="round" d="M 1935,9417 L 2085,9417"/>
 <path fill="none" stroke="rgb(179,179,179)" stroke-linejoin="round" d="M 1935,7199 L 2085,7199"/>
 <path fill="none" stroke="rgb(179,179,179)" stroke-linejoin="round" d="M 1935,7199 L 2085,7199"/>
 <path fill="none" stroke="rgb(179,179,179)" stroke-linejoin="round" d="M 1935,4981 L 2085,4981"/>
 <path fill="none" stroke="rgb(179,179,179)" stroke-linejoin="round" d="M 1935,4981 L 2085,4981"/>
 <path fill="none" stroke="rgb(179,179,179)" stroke-linejoin="round" d="M 1935,2763 L 2085,2763"/>
 <path fill="none" stroke="rgb(179,179,179)" stroke-linejoin="round" d="M 1935,2763 L 2085,2763"/>
 <path fill="none" stroke="rgb(179,179,179)" stroke-linejoin="round" d="M 2085,18289 L 2085,2763"/>
 <path fill="rgb(0,69,134)" stroke="none" d="M 2085,18144 L 3196,18133 4307,18133 5418,18111 6529,18067 7640,18067 8750,17945 9861,17900 9861,18289 2085,18289 2085,18144 Z"/>
 <path fill="rgb(255,66,14)" stroke="none" d="M 2085,18144 L 3196,17934 4307,17812 5418,17767 6529,17679 7640,17645 8750,17446 9861,17057 9861,17900 8750,17945 7640,18067 6529,18067 5418,18111 4307,18133 3196,18133 2085,18144 Z"/>
 <path fill="rgb(255,211,32)" stroke="none" d="M 2085,18144 L 3196,16026 4307,15593 5418,15372 6529,15161 7640,14762 8750,14340 9861,13653 9861,17057 8750,17446 7640,17645 6529,17679 5418,17767 4307,17812 3196,17934 2085,18144 Z"/>
 <path fill="rgb(87,157,28)" stroke="none" d="M 2085,18144 L 3196,14529 4307,13786 5418,13309 6529,12965 7640,12388 8750,11734 9861,10891 9861,13653 8750,14340 7640,14762 6529,15161 5418,15372 4307,15593 3196,16026 2085,18144 Z"/>
 <path fill="rgb(126,0,33)" stroke="none" d="M 2085,18144 L 3196,14529 4307,13786 5418,13309 6529,11900 7640,11146 8750,9550 9861,8618 9861,10891 8750,11734 7640,12388 6529,12965 5418,13309 4307,13786 3196,14529 2085,18144 Z"/>
 <path fill="rgb(131,202,255)" stroke="none" d="M 2085,18144 L 3196,14529 4307,13786 5418,13309 6529,11390 7640,10581 8750,8896 9861,7964 9861,8618 8750,9550 7640,11146 6529,11900 5418,13309 4307,13786 3196,14529 2085,18144 Z"/>
 <path fill="rgb(49,64,4)" stroke="none" d="M 2085,18144 L 3196,14529 4307,13786 5418,13309 6529,11390 7640,10581 8750,8607 9861,7642 9861,7964 8750,8896 7640,10581 6529,11390 5418,13309 4307,13786 3196,14529 2085,18144 Z"/>
 <path fill="rgb(174,207,0)" stroke="none" d="M 2085,18144 L 3196,14529 4307,13786 5418,13309 6529,11390 7640,10581 8750,8607 9861,7609 9861,7642 8750,8607 7640,10581 6529,11390 5418,13309 4307,13786 3196,14529 2085,18144 Z"/>
 <path fill="rgb(75,31,111)" stroke="none" d="M 2085,18144 L 3196,14529 4307,13786 5418,13309 6529,11390 7640,10581 8750,8607 9861,5557 9861,7609 8750,8607 7640,10581 6529,11390 5418,13309 4307,13786 3196,14529 2085,18144 Z"/>
 <text class="TextShape" transform="rotate(-45 1307 19625)"><tspan class="TextParagraph" font-family="Liberation Sans, sans-serif" font-size="353px" font-weight="400"><tspan class="TextPosition" x="1307" y="19625"><tspan fill="rgb(0,0,0)" stroke="none">-201909</tspan></tspan></tspan></text>
 <text class="TextShape" transform="rotate(-45 2418 19625)"><tspan class="TextParagraph" font-family="Liberation Sans, sans-serif" font-size="353px" font-weight="400"><tspan class="TextPosition" x="2418" y="19625"><tspan fill="rgb(0,0,0)" stroke="none">-202003</tspan></tspan></tspan></text>
 <text class="TextShape" transform="rotate(-45 3529 19625)"><tspan class="TextParagraph" font-family="Liberation Sans, sans-serif" font-size="353px" font-weight="400"><tspan class="TextPosition" x="3529" y="19625"><tspan fill="rgb(0,0,0)" stroke="none">-202009</tspan></tspan></tspan></text>
 <text class="TextShape" transform="rotate(-45 4640 19625)"><tspan class="TextParagraph" font-family="Liberation Sans, sans-serif" font-size="353px" font-weight="400"><tspan class="TextPosition" x="4640" y="19625"><tspan fill="rgb(0,0,0)" stroke="none">-202103</tspan></tspan></tspan></text>
 <text class="TextShape" transform="rotate(-45 5751 19625)"><tspan class="TextParagraph" font-family="Liberation Sans, sans-serif" font-size="353px" font-weight="400"><tspan class="TextPosition" x="5751" y="19625"><tspan fill="rgb(0,0,0)" stroke="none">-202109</tspan></tspan></tspan></text>
 <text class="TextShape" transform="rotate(-45 6861 19625)"><tspan class="TextParagraph" font-family="Liberation Sans, sans-serif" font-size="353px" font-weight="400"><tspan class="TextPosition" x="6861" y="19625"><tspan fill="rgb(0,0,0)" stroke="none">-202203</tspan></tspan></tspan></text>
 <text class="TextShape" transform="rotate(-45 7973 19625)"><tspan class="TextParagraph" font-family="Liberation Sans, sans-serif" font-size="353px" font-weight="400"><tspan class="TextPosition" x="7973" y="19625"><tspan fill="rgb(0,0,0)" stroke="none">-202209</tspan></tspan></tspan></text>
 <text class="TextShape" transform="rotate(-45 9084 19625)"><tspan class="TextParagraph" font-family="Liberation Sans, sans-serif" font-size="353px" font-weight="400"><tspan class="TextPosition" x="9084" y="19625"><tspan fill="rgb(0,0,0)" stroke="none">-202303</tspan></tspan></tspan></text>
 <text class="TextShape"><tspan class="TextParagraph" font-family="Liberation Sans, sans-serif" font-size="353px" font-weight="400"><tspan class="TextPosition" x="1650" y="18410"><tspan fill="rgb(0,0,0)" stroke="none">0</tspan></tspan></tspan></text>
 <text class="TextShape"><tspan class="TextParagraph" font-family="Liberation Sans, sans-serif" font-size="353px" font-weight="400"><tspan class="TextPosition" x="1279" y="16191"><tspan fill="rgb(0,0,0)" stroke="none">200</tspan></tspan></tspan></text>
 <text class="TextShape"><tspan class="TextParagraph" font-family="Liberation Sans, sans-serif" font-size="353px" font-weight="400"><tspan class="TextPosition" x="1279" y="13973"><tspan fill="rgb(0,0,0)" stroke="none">400</tspan></tspan></tspan></text>
 <text class="TextShape"><tspan class="TextParagraph" font-family="Liberation Sans, sans-serif" font-size="353px" font-weight="400"><tspan class="TextPosition" x="1279" y="11755"><tspan fill="rgb(0,0,0)" stroke="none">600</tspan></tspan></tspan></text>
 <text class="TextShape"><tspan class="TextParagraph" font-family="Liberation Sans, sans-serif" font-size="353px" font-weight="400"><tspan class="TextPosition" x="1279" y="9537"><tspan fill="rgb(0,0,0)" stroke="none">800</tspan></tspan></tspan></text>
 <text class="TextShape"><tspan class="TextParagraph" font-family="Liberation Sans, sans-serif" font-size="353px" font-weight="400"><tspan class="TextPosition" x="1094" y="7319"><tspan fill="rgb(0,0,0)" stroke="none">1000</tspan></tspan></tspan></text>
 <text class="TextShape"><tspan class="TextParagraph" font-family="Liberation Sans, sans-serif" font-size="353px" font-weight="400"><tspan class="TextPosition" x="1094" y="5101"><tspan fill="rgb(0,0,0)" stroke="none">1200</tspan></tspan></tspan></text>
 <text class="TextShape"><tspan class="TextParagraph" font-family="Liberation Sans, sans-serif" font-size="353px" font-weight="400"><tspan class="TextPosition" x="1094" y="2883"><tspan fill="rgb(0,0,0)" stroke="none">1400</tspan></tspan></tspan></text>
 <text class="TextShape"><tspan class="TextParagraph" font-family="IPAPGothic, sans-serif" font-size="459px" font-weight="400"><tspan class="TextPosition" x="4624" y="1094"><tspan fill="rgb(0,0,0)" stroke="none">国立国会図書館納本利用件数累積</tspan></tspan></tspan></text>
 <text class="TextShape"><tspan class="TextParagraph" font-family="IPAPGothic, sans-serif" font-size="388px" font-weight="400"><tspan class="TextPosition" x="5960" y="2171"><tspan fill="rgb(0,0,0)" stroke="none">音訳グループ　やまびこ</tspan></tspan></tspan></text>
 <path fill="rgb(0,69,134)" stroke="none" d="M 10738,13322 L 10632,13322 10632,13111 10843,13111 10843,13322 10738,13322 Z"/>
 <path fill="rgb(255,66,14)" stroke="none" d="M 10738,12824 L 10632,12824 10632,12613 10843,12613 10843,12824 10738,12824 Z"/>
 <path fill="rgb(255,211,32)" stroke="none" d="M 10738,11982 L 10632,11982 10632,11771 10843,11771 10843,11982 10738,11982 Z"/>
 <path fill="rgb(87,157,28)" stroke="none" d="M 10738,11140 L 10632,11140 10632,10929 10843,10929 10843,11140 10738,11140 Z"/>
 <path fill="rgb(126,0,33)" stroke="none" d="M 10738,10642 L 10632,10642 10632,10432 10843,10432 10843,10642 10738,10642 Z"/>
 <path fill="rgb(131,202,255)" stroke="none" d="M 10738,9801 L 10632,9801 10632,9590 10843,9590 10843,9801 10738,9801 Z"/>
 <path fill="rgb(49,64,4)" stroke="none" d="M 10738,8959 L 10632,8959 10632,8748 10843,8748 10843,8959 10738,8959 Z"/>
 <path fill="rgb(174,207,0)" stroke="none" d="M 10738,8117 L 10632,8117 10632,7906 10843,7906 10843,8117 10738,8117 Z"/>
 <path fill="rgb(75,31,111)" stroke="none" d="M 10738,7672 L 10632,7672 10632,7461 10843,7461 10843,7672 10738,7672 Z"/>
 <text class="TextShape"><tspan class="TextParagraph" font-family="IPAPGothic, sans-serif" font-size="353px" font-weight="400"><tspan class="TextPosition" x="10943" y="7685"><tspan fill="rgb(0,0,0)" stroke="none">カーラリー殺人事件</tspan></tspan></tspan></text>
 <text class="TextShape"><tspan class="TextParagraph" font-family="IPAPGothic, sans-serif" font-size="353px" font-weight="400"><tspan class="TextPosition" x="10943" y="8130"><tspan fill="rgb(0,0,0)" stroke="none">しばいのすきなえんまさん</tspan></tspan><tspan class="TextPosition" x="10943" y="8501"><tspan font-family="Liberation Sans, sans-serif" fill="rgb(0,0,0)" stroke="none">EPUB3 </tspan></tspan></tspan></text>
 <text class="TextShape"><tspan class="TextParagraph" font-family="IPAPGothic, sans-serif" font-size="353px" font-weight="400"><tspan class="TextPosition" x="10943" y="8972"><tspan fill="rgb(0,0,0)" stroke="none">しばいのすきなえんまさん</tspan></tspan><tspan class="TextPosition" x="10943" y="9343"><tspan font-family="Liberation Sans, sans-serif" fill="rgb(0,0,0)" stroke="none">DAISY2.02</tspan><tspan fill="rgb(0,0,0)" stroke="none">マルチメディア</tspan></tspan></tspan></text>
 <text class="TextShape"><tspan class="TextParagraph" font-family="IPAPGothic, sans-serif" font-size="353px" font-weight="400"><tspan class="TextPosition" x="10943" y="9841"><tspan fill="rgb(0,0,0)" stroke="none">言霊太郎の大冒険 </tspan><tspan font-family="Liberation Sans, sans-serif" fill="rgb(0,0,0)" stroke="none">: </tspan><tspan fill="rgb(0,0,0)" stroke="none">想いをの</tspan></tspan><tspan class="TextPosition" x="10943" y="10211"><tspan fill="rgb(0,0,0)" stroke="none">せて</tspan></tspan></tspan></text>
 <text class="TextShape"><tspan class="TextParagraph" font-family="Liberation Sans, sans-serif" font-size="353px" font-weight="400"><tspan class="TextPosition" x="10943" y="10682"><tspan font-family="IPAPGothic, sans-serif" fill="rgb(0,0,0)" stroke="none">子規</tspan><tspan fill="rgb(0,0,0)" stroke="none">365</tspan><tspan font-family="IPAPGothic, sans-serif" fill="rgb(0,0,0)" stroke="none">日</tspan></tspan></tspan></text>
 <text class="TextShape"><tspan class="TextParagraph" font-family="IPAPGothic, sans-serif" font-size="353px" font-weight="400"><tspan class="TextPosition" x="10943" y="11180"><tspan fill="rgb(0,0,0)" stroke="none">体感して学ぶヨガの運動学 </tspan><tspan font-family="Liberation Sans, sans-serif" fill="rgb(0,0,0)" stroke="none">: </tspan><tspan fill="rgb(0,0,0)" stroke="none">体</tspan></tspan><tspan class="TextPosition" x="10943" y="11550"><tspan fill="rgb(0,0,0)" stroke="none">にやさしく効率的な動かし方</tspan></tspan></tspan></text>
 <text class="TextShape"><tspan class="TextParagraph" font-family="IPAPGothic, sans-serif" font-size="353px" font-weight="400"><tspan class="TextPosition" x="10943" y="12022"><tspan fill="rgb(0,0,0)" stroke="none">おいしい</tspan><tspan font-family="Liberation Sans, sans-serif" fill="rgb(0,0,0)" stroke="none">!</tspan><tspan fill="rgb(0,0,0)" stroke="none">冷凍保存レシピ </tspan><tspan font-family="Liberation Sans, sans-serif" fill="rgb(0,0,0)" stroke="none">: </tspan><tspan fill="rgb(0,0,0)" stroke="none">か</tspan></tspan><tspan class="TextPosition" x="10943" y="12392"><tspan fill="rgb(0,0,0)" stroke="none">んたん節約すぐできる</tspan></tspan></tspan></text>
 <text class="TextShape"><tspan class="TextParagraph" font-family="IPAPGothic, sans-serif" font-size="353px" font-weight="400"><tspan class="TextPosition" x="10943" y="12864"><tspan fill="rgb(0,0,0)" stroke="none">老女マノン・脂粉の顔 </tspan><tspan font-family="Liberation Sans, sans-serif" fill="rgb(0,0,0)" stroke="none">: </tspan><tspan fill="rgb(0,0,0)" stroke="none">他四篇</tspan></tspan></tspan></text>
 <text class="TextShape"><tspan class="TextParagraph" font-family="IPAPGothic, sans-serif" font-size="353px" font-weight="400"><tspan class="TextPosition" x="10943" y="13362"><tspan fill="rgb(0,0,0)" stroke="none">ゴルフ規則 プレーヤーズ版</tspan><tspan font-family="Liberation Sans, sans-serif" fill="rgb(0,0,0)" stroke="none">: </tspan></tspan><tspan class="TextPosition" x="10943" y="13759"><tspan font-family="Liberation Sans, sans-serif" fill="rgb(0,0,0)" stroke="none">2019</tspan><tspan fill="rgb(0,0,0)" stroke="none">年</tspan><tspan font-family="Liberation Sans, sans-serif" fill="rgb(0,0,0)" stroke="none">1</tspan><tspan fill="rgb(0,0,0)" stroke="none">月施行</tspan></tspan></tspan></text>
 <text class="TextShape"><tspan class="TextParagraph" font-family="IPAPGothic, sans-serif" font-size="318px" font-weight="400"><tspan class="TextPosition" x="5420" y="20691"><tspan fill="rgb(0,0,0)" stroke="none">年月</tspan></tspan></tspan></text>
 <text class="TextShape" transform="rotate(-90 837 12776)"><tspan class="TextParagraph" font-family="IPAPGothic, sans-serif" font-size="318px" font-weight="400"><tspan class="TextPosition" x="837" y="12776"><tspan fill="rgb(0,0,0)" stroke="none">ダウンロード件数累積</tspan></tspan></tspan></text>
</svg>